<?xml version="1.0" encoding="utf-8"?>
<!-- Generator: Adobe Illustrator 16.0.4, SVG Export Plug-In . SVG Version: 6.00 Build 0)  -->
<!DOCTYPE svg PUBLIC "-//W3C//DTD SVG 1.1//EN" "http://www.w3.org/Graphics/SVG/1.1/DTD/svg11.dtd">
<svg version="1.1" id="Laag_1" xmlns="http://www.w3.org/2000/svg" xmlns:xlink="http://www.w3.org/1999/xlink" x="0px" y="0px"
	 width="1280px" height="50px" viewBox="0 0 1280 50" enable-background="new 0 0 1280 50" xml:space="preserve">
<g>
	<g>
		<path d="M573.8,26.923h-9.95l-2.505,7.033h-3.363l9.23-24.361h3.225l9.23,24.361h-3.363L573.8,26.923z M572.84,24.177
			l-3.397-9.504c-0.206-0.549-0.412-1.133-0.583-1.854h-0.069c-0.171,0.721-0.377,1.305-0.583,1.854l-3.397,9.504H572.84z"/>
		<path d="M592.467,18.139c1.029,1.029,1.579,2.436,1.579,4.049c0,3.327-2.368,5.866-6.348,5.866c-1.27,0-2.368-0.273-3.294-0.72
			c-0.721,0.309-1.235,0.892-1.235,1.681c0,0.961,0.721,1.75,2.848,1.75h4.186c3.877,0,5.833,1.75,5.833,4.838
			c0,3.226-2.539,5.455-8.509,5.455c-6.039,0-7.72-2.264-7.72-4.7c0-1.612,0.96-2.985,2.779-3.567
			c-1.441-0.652-1.99-1.75-1.99-2.986c0-1.715,0.995-2.881,2.436-3.431c-1.098-1.063-1.681-2.505-1.681-4.186
			c0-3.329,2.368-5.799,6.348-5.799c1.304,0,2.402,0.274,3.362,0.721c0.515-1.75,1.784-3.123,4.083-3.123
			c0.377,0,0.755,0.034,1.132,0.138v2.539c-0.343-0.069-0.755-0.138-1.235-0.138C593.737,16.525,592.879,17.04,592.467,18.139z
			 M585.914,33.339c-0.515,0-0.995-0.035-1.441-0.069c-1.235,0.549-1.819,1.544-1.819,2.573c0,2.127,2.127,2.814,5.215,2.814
			c4.186,0,5.25-1.305,5.25-2.849c0-1.612-1.201-2.47-3.568-2.47H585.914z M591.301,22.222c0-2.094-1.407-3.604-3.603-3.604
			s-3.603,1.476-3.603,3.569c0,2.093,1.407,3.637,3.603,3.637S591.301,24.314,591.301,22.222z"/>
		<path d="M598.934,27.506c0,0.687,0.125,1.298,0.377,1.835c0.251,0.538,0.594,0.984,1.029,1.338
			c0.434,0.355,0.926,0.63,1.475,0.824c0.549,0.194,1.121,0.291,1.716,0.291c1.304,0,2.378-0.291,3.225-0.875
			c0.846-0.582,1.475-1.424,1.887-2.521h2.917c-0.229,0.984-0.595,1.848-1.098,2.591c-0.503,0.743-1.11,1.361-1.818,1.853
			c-0.709,0.492-1.499,0.863-2.368,1.115c-0.87,0.251-1.784,0.377-2.745,0.377c-1.464,0-2.682-0.223-3.654-0.668
			c-0.972-0.447-1.744-1.018-2.316-1.717c-0.572-0.697-0.973-1.463-1.201-2.299c-0.229-0.834-0.343-1.641-0.343-2.418
			c0-1.693,0.246-3.243,0.738-4.649c0.492-1.407,1.155-2.613,1.99-3.62c0.835-1.006,1.807-1.784,2.917-2.333
			c1.109-0.549,2.27-0.823,3.482-0.823c2.608,0,4.512,0.686,5.713,2.058c1.201,1.373,1.801,3.307,1.801,5.799
			c0,0.458-0.034,0.893-0.103,1.305c-0.068,0.411-0.126,0.743-0.171,0.995h-13.347C598.968,26.466,598.934,26.979,598.934,27.506z
			 M609.621,21.553c-0.125-0.606-0.355-1.144-0.686-1.612c-0.332-0.469-0.772-0.847-1.321-1.133
			c-0.549-0.286-1.224-0.429-2.024-0.429c-0.847,0-1.607,0.132-2.282,0.395c-0.675,0.263-1.264,0.623-1.767,1.081
			c-0.503,0.457-0.926,0.989-1.269,1.595c-0.343,0.606-0.618,1.253-0.824,1.938h10.293
			C609.787,22.771,609.747,22.158,609.621,21.553z"/>
		<path d="M619.677,16.217l-0.549,2.677h0.068c0.731-1.03,1.658-1.802,2.779-2.316c1.12-0.515,2.299-0.771,3.534-0.771
			c1.669,0,2.91,0.366,3.723,1.098c0.812,0.732,1.218,1.887,1.218,3.466c0,0.389-0.046,0.892-0.137,1.509
			c-0.092,0.618-0.218,1.27-0.378,1.956l-2.161,10.122h-2.917l2.265-10.362c0.022-0.183,0.057-0.395,0.103-0.635
			s0.092-0.491,0.138-0.755c0.046-0.263,0.086-0.515,0.12-0.755s0.052-0.44,0.052-0.601c0-0.846-0.298-1.469-0.893-1.869
			s-1.326-0.601-2.195-0.601c-0.801,0-1.596,0.194-2.385,0.583c-0.789,0.39-1.458,0.881-2.008,1.476
			c-0.526,0.458-0.938,1.012-1.235,1.664c-0.297,0.651-0.537,1.332-0.72,2.041l-2.059,9.813h-2.882l3.706-17.739H619.677z"/>
		<path d="M645.896,33.956v-2.402h-0.068c-0.48,0.984-1.235,1.693-2.265,2.128s-2.161,0.651-3.396,0.651
			c-1.372,0-2.568-0.252-3.586-0.754c-1.018-0.504-1.864-1.179-2.539-2.025c-0.674-0.846-1.184-1.829-1.526-2.95
			c-0.343-1.12-0.515-2.31-0.515-3.568c0-1.258,0.166-2.447,0.497-3.568c0.332-1.121,0.835-2.099,1.51-2.934s1.521-1.498,2.539-1.99
			c1.018-0.491,2.201-0.737,3.552-0.737c0.457,0,0.948,0.046,1.475,0.137c0.526,0.092,1.052,0.246,1.579,0.463
			c0.525,0.218,1.023,0.504,1.492,0.858s0.863,0.795,1.184,1.321h0.068V9.458h2.917v24.498H645.896z M635.415,27.659
			c0.217,0.79,0.549,1.493,0.995,2.111c0.446,0.617,1.018,1.109,1.716,1.475c0.697,0.366,1.515,0.549,2.453,0.549
			c0.982,0,1.818-0.193,2.504-0.583c0.687-0.389,1.247-0.897,1.682-1.526s0.749-1.344,0.943-2.145S646,25.927,646,25.104
			c0-0.869-0.104-1.71-0.31-2.521c-0.205-0.812-0.531-1.527-0.978-2.145c-0.446-0.618-1.023-1.115-1.732-1.493
			c-0.709-0.377-1.567-0.565-2.573-0.565c-0.983,0-1.818,0.194-2.505,0.583c-0.687,0.39-1.235,0.904-1.646,1.544
			c-0.412,0.641-0.71,1.372-0.893,2.196c-0.184,0.823-0.274,1.67-0.274,2.539C635.089,26.064,635.197,26.87,635.415,27.659z"/>
		<path d="M667.656,33.888c-0.504,0.297-1.201,0.445-2.093,0.445c-0.755,0-1.355-0.211-1.802-0.635
			c-0.446-0.423-0.669-1.115-0.669-2.075c-0.801,0.96-1.732,1.652-2.796,2.075c-1.063,0.424-2.214,0.635-3.448,0.635
			c-0.801,0-1.562-0.092-2.282-0.273c-0.72-0.184-1.344-0.469-1.87-0.858c-0.526-0.389-0.943-0.897-1.252-1.526
			s-0.463-1.391-0.463-2.282c0-1.007,0.172-1.829,0.515-2.47s0.794-1.161,1.355-1.562c0.56-0.4,1.2-0.704,1.921-0.909
			c0.721-0.206,1.458-0.378,2.213-0.516c0.801-0.159,1.562-0.279,2.282-0.359c0.72-0.08,1.354-0.194,1.904-0.344
			c0.549-0.148,0.982-0.365,1.304-0.651c0.32-0.286,0.48-0.704,0.48-1.253c0-0.64-0.12-1.154-0.36-1.544
			c-0.24-0.389-0.55-0.686-0.927-0.892s-0.801-0.344-1.27-0.412s-0.933-0.103-1.39-0.103c-1.235,0-2.265,0.234-3.088,0.703
			s-1.27,1.355-1.338,2.659h-2.916c0.045-1.098,0.274-2.024,0.686-2.779c0.412-0.755,0.961-1.366,1.647-1.836
			c0.686-0.468,1.469-0.806,2.35-1.012s1.824-0.309,2.831-0.309c0.8,0,1.596,0.057,2.385,0.171s1.504,0.349,2.144,0.702
			c0.641,0.354,1.155,0.851,1.545,1.489c0.389,0.64,0.583,1.473,0.583,2.499v9.107c0,0.686,0.039,1.188,0.12,1.506
			c0.08,0.32,0.349,0.479,0.806,0.479c0.252,0,0.55-0.046,0.893-0.137V33.888z M662.921,24.795c-0.365,0.273-0.846,0.473-1.44,0.598
			c-0.596,0.125-1.218,0.228-1.87,0.307c-0.652,0.08-1.31,0.172-1.973,0.274c-0.664,0.102-1.258,0.268-1.784,0.494
			c-0.526,0.228-0.956,0.553-1.287,0.974s-0.497,0.996-0.497,1.724c0,0.479,0.097,0.883,0.291,1.213s0.446,0.598,0.756,0.803
			c0.309,0.204,0.669,0.352,1.08,0.443c0.412,0.091,0.846,0.136,1.304,0.136c0.961,0,1.784-0.13,2.471-0.392s1.246-0.592,1.682-0.99
			c0.434-0.398,0.755-0.832,0.96-1.298c0.206-0.466,0.309-0.905,0.309-1.314V24.795z"/>
		<path d="M676.535,29.222c0-0.458-0.194-0.824-0.583-1.099c-0.39-0.274-0.87-0.526-1.441-0.755c-0.572-0.229-1.2-0.463-1.887-0.703
			s-1.315-0.572-1.888-0.995c-0.571-0.423-1.052-0.961-1.44-1.613c-0.39-0.651-0.584-1.492-0.584-2.521
			c0-1.692,0.504-2.985,1.51-3.877c1.007-0.892,2.459-1.338,4.358-1.338c1.304,0,2.481,0.137,3.533,0.411s1.876,0.584,2.471,0.927
			l-0.995,3.225c-0.526-0.205-1.189-0.422-1.99-0.651c-0.801-0.229-1.612-0.343-2.436-0.343c-1.327,0-1.99,0.515-1.99,1.544
			c0,0.411,0.194,0.743,0.583,0.995s0.869,0.486,1.441,0.703c0.571,0.218,1.201,0.452,1.887,0.703
			c0.687,0.252,1.315,0.578,1.888,0.978c0.571,0.4,1.052,0.922,1.44,1.562s0.584,1.464,0.584,2.47c0,1.739-0.556,3.104-1.664,4.101
			c-1.11,0.994-2.774,1.492-4.992,1.492c-1.213,0-2.351-0.154-3.414-0.463s-1.928-0.67-2.591-1.082l1.235-3.327
			c0.526,0.298,1.224,0.589,2.093,0.874c0.869,0.287,1.761,0.43,2.677,0.43c0.663,0,1.194-0.125,1.595-0.377
			S676.535,29.816,676.535,29.222z"/>
	</g>
	<path d="M694.296,27.3c0-0.869,0.143-1.699,0.429-2.488s0.687-1.527,1.201-2.213s1.126-1.326,1.835-1.922
		c0.709-0.594,1.476-1.119,2.299-1.578c-0.572-0.754-1.041-1.52-1.406-2.299c-0.366-0.777-0.549-1.6-0.549-2.471
		c0-0.57,0.107-1.148,0.326-1.732c0.217-0.582,0.561-1.109,1.029-1.578s1.08-0.846,1.835-1.131c0.755-0.287,1.669-0.43,2.745-0.43
		c1.052,0,1.949,0.127,2.693,0.377c0.743,0.252,1.344,0.584,1.801,0.996c0.458,0.41,0.789,0.881,0.996,1.406
		c0.205,0.525,0.309,1.062,0.309,1.613c0,0.938-0.332,1.916-0.996,2.932c-0.663,1.02-1.795,1.996-3.396,2.934
		c0.801,1.236,1.602,2.369,2.402,3.398s1.692,2.047,2.676,3.053c0.526-0.57,1-1.287,1.424-2.145s0.795-1.732,1.115-2.625
		l3.226,1.717c-0.138,0.41-0.326,0.863-0.566,1.355c-0.24,0.49-0.503,0.988-0.789,1.492c-0.286,0.502-0.577,0.977-0.875,1.424
		c-0.298,0.445-0.571,0.828-0.823,1.148c0.732,0.664,1.373,1.184,1.922,1.561c0.549,0.379,1.108,0.727,1.681,1.047l-2.368,3.295
		c-0.641-0.299-1.298-0.691-1.973-1.184c-0.674-0.492-1.344-1.059-2.007-1.699c-0.823,0.756-1.853,1.424-3.088,2.008
		c-1.235,0.582-2.757,0.875-4.563,0.875c-1.189,0-2.305-0.16-3.346-0.48s-1.943-0.789-2.71-1.406
		c-0.767-0.619-1.372-1.367-1.818-2.248S694.296,28.421,694.296,27.3z M707.813,28.843c-1.166-1.211-2.229-2.418-3.189-3.619
		c-0.961-1.201-1.797-2.338-2.506-3.414c-1.098,0.848-1.933,1.664-2.504,2.453c-0.572,0.789-0.857,1.676-0.857,2.66
		c0,1.166,0.428,2.08,1.286,2.744c0.857,0.664,1.983,0.994,3.38,0.994c0.914,0,1.771-0.188,2.572-0.566
		C706.796,29.718,707.402,29.302,707.813,28.843z M702.564,14.536c0,0.961,0.412,1.99,1.235,3.088
		c0.893-0.572,1.538-1.109,1.938-1.613c0.399-0.502,0.601-0.982,0.601-1.441c0-0.549-0.154-0.982-0.463-1.303
		s-0.807-0.48-1.492-0.48c-0.618,0-1.076,0.16-1.373,0.48S702.564,14.011,702.564,14.536z"/>
	<g>
		<g>
			<path d="M789.664,9.462c4.825,0,7.237,1.877,7.237,5.629c0,1.576-0.486,2.904-1.457,3.988c-0.973,1.084-2.34,1.787-4.105,2.111
				v0.166c1.285,0.359,2.271,0.975,2.957,1.852c0.688,0.877,1.031,1.93,1.031,3.158c0,2.369-0.85,4.225-2.547,5.57
				c-1.698,1.348-3.971,2.02-6.818,2.02h-7.758l5.178-24.494H789.664z M781.572,31.526h4.456c2.021,0,3.574-0.449,4.658-1.348
				c1.082-0.9,1.625-2.17,1.625-3.812c0-1.295-0.417-2.287-1.248-2.973c-0.832-0.688-2.031-1.031-3.594-1.031h-3.954L781.572,31.526
				z M784.035,19.95h4.155c1.742,0,3.133-0.408,4.171-1.223c1.038-0.816,1.558-1.928,1.558-3.334c0-1.162-0.371-2.029-1.113-2.605
				c-0.743-0.574-1.913-0.863-3.51-0.863h-3.535L784.035,19.95z"/>
			<path d="M809.892,33.956v-1.717c-0.893,1.305-2.676,2.094-4.529,2.094c-4.186,0-6.416-2.744-6.416-8.062V15.942h3.534v10.191
				c0,3.637,1.372,4.939,3.706,4.939c2.367,0,3.705-1.682,3.705-4.598V15.942h3.534v18.014H809.892z"/>
			<path d="M825.746,33.511c-0.857,0.479-2.059,0.822-3.465,0.822c-2.505,0-4.049-1.543-4.049-4.77V19.167h-2.573v-3.225h2.573
				v-5.146l3.465-1.854v7h4.461v3.225h-4.461v9.779c0,1.682,0.549,2.162,1.854,2.162c0.926,0,1.955-0.344,2.607-0.721
				L825.746,33.511z"/>
			<path d="M835.941,31.259l0.436,2.664c-0.849,0.178-1.608,0.268-2.278,0.268c-1.095,0-1.943-0.174-2.547-0.52
				s-1.027-0.801-1.273-1.365c-0.245-0.564-0.368-1.75-0.368-3.561V18.509h-2.212v-2.346h2.212v-4.404l2.999-1.811v6.215h3.032
				v2.346h-3.032v10.404c0,0.859,0.053,1.412,0.159,1.658c0.105,0.246,0.278,0.441,0.519,0.586c0.24,0.146,0.584,0.219,1.031,0.219
				C834.953,31.376,835.394,31.337,835.941,31.259z"/>
			<path d="M836.571,25.06c0-3.295,0.916-5.734,2.748-7.32c1.529-1.318,3.395-1.977,5.595-1.977c2.446,0,4.445,0.801,5.998,2.402
				c1.552,1.604,2.329,3.818,2.329,6.645c0,2.289-0.344,4.09-1.031,5.402c-0.687,1.312-1.687,2.332-2.998,3.057
				c-1.312,0.727-2.745,1.09-4.298,1.09c-2.49,0-4.504-0.799-6.039-2.396C837.339,30.364,836.571,28.063,836.571,25.06z"/>
			<path d="M855.155,33.956V17.034l4.088-0.166v1.273c1.396-0.939,2.893-1.408,4.49-1.408c1.854,0,3.303,0.521,4.348,1.566
				c1.044,1.045,1.566,2.545,1.566,4.498v11.158h-4.222V23.702c0-1.082-0.246-1.869-0.737-2.361
				c-0.492-0.492-1.234-0.736-2.229-0.736c-1.05,0-2.077,0.184-3.082,0.553v12.799H855.155z"/>
			<path d="M871.794,22.173c0-1.617,0.646-2.928,1.94-3.932c1.293-1.006,3.088-1.508,5.384-1.508c1.484,0,2.879,0.113,4.185,0.338
				l-0.234,3.564c-1.439-0.223-2.823-0.334-4.15-0.334c-0.979,0-1.707,0.129-2.186,0.385c-0.478,0.256-0.717,0.596-0.717,1.018
				c0,0.4,0.116,0.715,0.351,0.943c0.233,0.229,0.739,0.449,1.518,0.66l2.019,0.551c1.452,0.4,2.502,0.977,3.149,1.729
				c0.647,0.75,0.972,1.711,0.972,2.879c0,1.775-0.644,3.166-1.932,4.176c-1.287,1.01-3.052,1.516-5.292,1.516
				c-2.045,0-3.703-0.146-4.973-0.436v-3.637c1.495,0.336,3.119,0.504,4.872,0.504c1.134,0,1.935-0.129,2.401-0.385
				c0.468-0.256,0.701-0.617,0.701-1.086c0-0.4-0.147-0.727-0.442-0.977c-0.294-0.25-0.864-0.504-1.709-0.76l-2.158-0.652
				C873.026,26.019,871.794,24.499,871.794,22.173z"/>
		</g>
		<g>
			<path d="M743.956,17.435c0,2.27-0.833,4.127-2.497,5.57c-1.664,1.445-3.808,2.168-6.43,2.168c-0.821,0-1.438,0-1.847,0v8.783
				h-3.157V10.763c2.282-0.092,4.176-0.139,5.682-0.139c2.624,0,4.654,0.613,6.093,1.84
				C743.236,13.69,743.956,15.347,743.956,17.435z M740.696,17.743c0-3.008-1.772-4.512-5.318-4.512
				c-1.029,0-1.761,0.014-2.195,0.035v9.16c0.549,0.092,1.178,0.139,1.887,0.139c1.716-0.023,3.082-0.465,4.101-1.326
				C740.188,20.378,740.696,19.214,740.696,17.743z"/>
			<path d="M749.631,12.065c0,0.549-0.201,1.023-0.602,1.424s-0.886,0.602-1.457,0.602c-0.572,0-1.059-0.195-1.459-0.584
				s-0.6-0.869-0.6-1.441c0-0.549,0.199-1.018,0.6-1.406s0.887-0.584,1.459-0.584c0.571,0,1.057,0.189,1.457,0.566
				S749.631,11.495,749.631,12.065z M749.115,33.956h-3.088V16.903h3.088V33.956z"/>
			<path d="M762.44,33.956l2.479-11.594c0.223-1.16,0.335-1.965,0.335-2.412c0-0.703-0.198-1.268-0.595-1.691
				c-0.396-0.426-1.03-0.637-1.901-0.637c-0.994,0-1.964,0.334-2.907,1.004s-1.775,1.625-2.496,2.865s-1.265,2.742-1.633,4.508
				l-1.692,7.957h-2.814l3.92-18.361h2.329l-0.369,3.4h0.168c1.072-1.361,2.107-2.326,3.107-2.891c1-0.562,2.035-0.846,3.107-0.846
				c1.419,0,2.539,0.389,3.359,1.164c0.821,0.777,1.231,1.863,1.231,3.26c0,0.883-0.128,1.887-0.386,3.016l-2.396,11.258H762.44z"/>
		</g>
	</g>
	<g>
		<path d="M395.977,33.956l7.108-22.499h4.223l6.893,22.499h-2.984l-1.815-6.047h-8.798l-1.776,6.047H395.977z"/>
		<path d="M416.327,33.956V17.289l2.498-0.22v1.147c0.771-0.449,1.512-0.771,2.221-0.961c0.71-0.191,1.506-0.287,2.389-0.287
			c1.895,0,3.344,0.494,4.347,1.482s1.505,2.394,1.505,4.214v11.291h-2.599V22.962c0-1.093-0.327-1.96-0.98-2.602
			s-1.573-0.963-2.758-0.963c-1.352,0-2.693,0.285-4.023,0.854v13.705H416.327z"/>
		<path d="M444.891,33.442c-0.092-0.184-0.189-0.446-0.292-0.789c-0.103-0.344-0.178-0.664-0.223-0.961
			c-0.549,0.801-1.265,1.436-2.146,1.904c-0.881,0.469-1.837,0.703-2.867,0.703c-1.19,0-2.244-0.223-3.159-0.67
			c-0.916-0.445-1.683-1.068-2.301-1.869c-0.618-0.801-1.087-1.756-1.408-2.865c-0.321-1.109-0.48-2.327-0.48-3.654
			c0-1.532,0.206-2.904,0.618-4.117c0.412-1.212,0.966-2.235,1.665-3.07c0.698-0.835,1.516-1.47,2.455-1.904
			c0.938-0.435,1.934-0.652,2.987-0.652c0.961,0,1.854,0.206,2.678,0.618c0.824,0.411,1.454,0.915,1.889,1.51l0.103-1.167
			c0.022-0.251,0.091-0.417,0.206-0.498c0.114-0.079,0.297-0.119,0.549-0.119h2.266c0.435,0,0.652,0.183,0.652,0.549
			c0,0.229-0.006,0.577-0.017,1.046c-0.012,0.47-0.017,1.001-0.017,1.596s-0.006,1.229-0.017,1.904
			c-0.012,0.675-0.017,1.333-0.017,1.973v3.26c0,1.007,0.028,1.933,0.085,2.779s0.114,1.585,0.172,2.213
			c0.057,0.63,0.114,1.138,0.172,1.526c0.057,0.39,0.085,0.63,0.085,0.721c0,0.367-0.194,0.549-0.583,0.549h-2.3
			C445.279,33.956,445.028,33.785,444.891,33.442z M443.895,20.953c-0.435-0.595-0.95-1.059-1.545-1.39
			c-0.596-0.332-1.236-0.498-1.923-0.498c-1.305,0-2.324,0.515-3.056,1.544c-0.733,1.029-1.099,2.517-1.099,4.461
			c0,0.777,0.068,1.516,0.206,2.213c0.138,0.698,0.361,1.304,0.67,1.818s0.715,0.921,1.219,1.218c0.503,0.298,1.11,0.446,1.82,0.446
			c0.503,0,0.967-0.103,1.391-0.309c0.423-0.206,0.784-0.469,1.082-0.789c0.458-0.48,0.778-1.104,0.961-1.87
			c0.183-0.766,0.274-1.527,0.274-2.282V20.953z"/>
		<path d="M451.998,33.956c-0.39,0-0.583-0.182-0.583-0.549V22.668c0-0.709-0.012-1.412-0.035-2.11
			c-0.023-0.697-0.04-1.332-0.051-1.903c-0.012-0.572-0.029-1.058-0.052-1.459c-0.023-0.399-0.034-0.669-0.034-0.806
			c0-0.366,0.194-0.549,0.583-0.549h2.644c0.229,0,0.383,0.04,0.463,0.119c0.08,0.081,0.143,0.212,0.189,0.396
			c0.069,0.435,0.125,0.983,0.172,1.646c0.045,0.664,0.08,1.235,0.103,1.716c0.595-1.235,1.31-2.242,2.146-3.02
			c0.835-0.777,1.802-1.167,2.901-1.167c0.366,0,0.623,0.052,0.772,0.154c0.148,0.104,0.223,0.292,0.223,0.566v2.333
			c0,0.412-0.195,0.63-0.583,0.652c-0.871,0.092-1.683,0.372-2.438,0.841s-1.351,1.058-1.786,1.767
			c-0.206,0.343-0.383,0.709-0.532,1.098c-0.149,0.39-0.263,0.83-0.343,1.321c-0.081,0.492-0.137,1.069-0.171,1.733
			c-0.035,0.663-0.052,1.452-0.052,2.367v5.043c0,0.367-0.195,0.549-0.584,0.549H451.998z"/>
		<path d="M474.37,27.439l2.968,0.386c-0.324,2.043-1.154,3.644-2.49,4.8c-1.335,1.155-2.976,1.733-4.92,1.733
			c-2.437,0-4.396-0.795-5.876-2.387c-1.481-1.592-2.222-3.873-2.222-6.844c0-1.922,0.319-3.603,0.956-5.043
			c0.637-1.441,1.607-2.521,2.909-3.242c1.302-0.721,2.718-1.08,4.25-1.08c1.934,0,3.515,0.488,4.744,1.466s2.018,2.365,2.364,4.163
			l-2.934,0.452c-0.28-1.195-0.774-2.094-1.484-2.697s-1.567-0.904-2.573-0.904c-1.52,0-2.755,0.544-3.705,1.633
			c-0.95,1.089-1.425,2.812-1.425,5.169c0,2.391,0.458,4.127,1.375,5.21c0.917,1.083,2.112,1.626,3.587,1.626
			c1.185,0,2.174-0.363,2.968-1.09C473.654,30.064,474.158,28.947,474.37,27.439z"/>
		<path d="M479.05,33.956V9.396h3.018v8.812c1.409-1.631,3.186-2.446,5.332-2.446c1.318,0,2.464,0.26,3.437,0.779
			c0.973,0.519,1.668,1.236,2.088,2.152c0.419,0.916,0.628,2.244,0.628,3.987v11.274h-3.018V22.682c0-1.508-0.327-2.605-0.98-3.292
			c-0.654-0.688-1.579-1.03-2.774-1.03c-0.895,0-1.735,0.231-2.523,0.695c-0.788,0.463-1.35,1.092-1.686,1.884
			c-0.335,0.794-0.503,1.889-0.503,3.284v9.733H479.05z"/>
		<path d="M496.291,11.036c0-0.926,0.79-1.715,1.717-1.715c0.928,0,1.717,0.789,1.717,1.715c0,0.584-0.309,1.099-0.755,1.407h-1.923
			C496.601,12.135,496.291,11.62,496.291,11.036z M497.012,16.801h1.958v17.155h-1.958V16.801z"/>
		<path d="M501.258,30.868l1.683-1.029c0.927,1.647,2.197,2.574,4.189,2.574c2.129,0,3.845-1.064,3.845-2.814
			c0-1.681-0.927-2.572-3.398-3.431l-1.58-0.55c-3.09-1.098-3.948-3.054-3.948-4.871c0-2.334,2.129-4.221,5.185-4.221
			c2.163,0,4.018,1.132,4.876,3.156l-1.683,0.721c-0.515-1.235-1.614-2.059-3.262-2.059c-1.683,0-3.091,0.893-3.091,2.437
			c0,1.338,0.516,2.401,2.851,3.225l1.682,0.584c2.885,1.028,4.361,2.607,4.361,4.976c0,2.436-2.163,4.666-5.94,4.666
			C504.589,34.231,502.288,33.03,501.258,30.868z"/>
		<path d="M515.781,33.956V16.165h2.699v2.495c0.559-0.87,1.302-1.571,2.229-2.102s1.984-0.796,3.169-0.796
			c1.318,0,2.4,0.273,3.244,0.82c0.844,0.548,1.439,1.312,1.785,2.296c1.408-2.078,3.242-3.116,5.5-3.116
			c1.766,0,3.123,0.488,4.073,1.466s1.425,2.482,1.425,4.515v6.779h-3v-5.774c0-1.206-0.099-2.074-0.294-2.604
			s-0.551-0.958-1.064-1.282c-0.515-0.323-1.118-0.485-1.811-0.485c-1.252,0-2.292,0.416-3.118,1.248
			c-0.828,0.832-1.241,2.164-1.241,3.996v10.336h-3.018v-11.56c0-1.34-0.246-2.346-0.737-3.016c-0.492-0.67-1.297-1.005-2.415-1.005
			c-0.85,0-1.634,0.224-2.355,0.67c-0.721,0.447-1.243,1.101-1.567,1.96c-0.324,0.86-0.486,2.101-0.486,3.72v9.23H515.781z"/>
		<path d="M536.47,33.961v-3.435h3.437v3.435c0,1.262-0.224,2.28-0.67,3.058c-0.447,0.775-1.157,1.376-2.129,1.801l-0.839-1.29
			c0.638-0.279,1.106-0.69,1.408-1.231c0.302-0.542,0.47-1.321,0.503-2.337H536.47z"/>
	</g>
</g>
</svg>
