<?xml version="1.0" encoding="utf-8"?>
<!-- Generator: Adobe Illustrator 16.0.4, SVG Export Plug-In . SVG Version: 6.00 Build 0)  -->
<!DOCTYPE svg PUBLIC "-//W3C//DTD SVG 1.1//EN" "http://www.w3.org/Graphics/SVG/1.1/DTD/svg11.dtd">
<svg version="1.1" id="logo" xmlns="http://www.w3.org/2000/svg" xmlns:xlink="http://www.w3.org/1999/xlink" x="0px" y="0px"
	 width="193.94px" height="77px" viewBox="0 0 193.94 77" enable-background="new 0 0 193.94 77" xml:space="preserve">
<rect fill="#154273" width="44" height="77"/>
<path fill="#1D1D1B" d="M54.943,47.479V36.725h2.765c1.187,0,2.085,0.238,2.696,0.715c0.608,0.477,0.913,1.13,0.913,1.959
	c0,1.208-0.491,2.007-1.473,2.396v0.032c0.626,0.155,1.102,0.444,1.431,0.866c0.327,0.422,0.491,0.953,0.491,1.59
	c0,1.01-0.326,1.793-0.977,2.355c-0.653,0.559-1.598,0.84-2.833,0.84H54.943z M56.233,41.426h1.386c0.82,0,1.422-0.152,1.801-0.459
	c0.379-0.304,0.569-0.783,0.569-1.431c0-1.142-0.792-1.713-2.37-1.713h-1.386V41.426z M56.233,46.384h1.688
	c0.806,0,1.427-0.176,1.863-0.525c0.434-0.35,0.653-0.842,0.653-1.479c0-0.627-0.221-1.102-0.662-1.416
	c-0.44-0.314-1.173-0.473-2.198-0.473h-1.345V46.384z"/>
<path fill="#1D1D1B" d="M63.055,39.465h1.377l2.224,6.632h0.073l1.913-6.632h1.242l-2.899,9.097c-0.24,0.762-0.568,1.309-0.98,1.637
	c-0.415,0.328-0.918,0.492-1.509,0.492c-0.306,0-0.589-0.031-0.851-0.096v-1.033c0.293,0.043,0.55,0.064,0.769,0.064
	c0.373,0,0.678-0.1,0.914-0.297c0.233-0.197,0.431-0.533,0.591-1.002l0.394-1.148h-0.504L63.055,39.465z"/>
<path fill="#1D1D1B" d="M75.158,47.479V36.725h2.851c1.719,0,3.048,0.432,3.989,1.293c0.938,0.863,1.409,2.124,1.409,3.784
	c0,1.843-0.477,3.249-1.431,4.22c-0.952,0.971-2.249,1.457-3.886,1.457H75.158z M76.448,46.353h1.656
	c1.229,0,2.192-0.371,2.893-1.111c0.699-0.738,1.047-1.855,1.047-3.35c0-1.341-0.357-2.349-1.076-3.024
	c-0.717-0.674-1.736-1.012-3.055-1.012h-1.465V46.353z"/>
<path fill="#1D1D1B" d="M84.993,45.423c0-0.717,0.311-1.301,0.936-1.748c0.623-0.447,1.525-0.672,2.703-0.672
	c0.468,0,0.87,0.008,1.206,0.018v-0.869c0-1.087-0.61-1.629-1.831-1.629c-0.764,0-1.548,0.172-2.351,0.518l-0.267-1.052
	c0.514-0.225,0.98-0.386,1.4-0.482c0.422-0.098,0.885-0.146,1.394-0.146c0.914,0,1.619,0.224,2.117,0.673
	c0.496,0.448,0.745,1.083,0.745,1.905v5.541H89.87v-0.551c-0.4,0.238-0.774,0.404-1.123,0.502s-0.767,0.145-1.251,0.145
	c-0.772,0-1.382-0.195-1.831-0.584C85.216,46.599,84.993,46.077,84.993,45.423z M86.322,45.327c0,0.365,0.122,0.652,0.368,0.867
	c0.244,0.211,0.602,0.318,1.069,0.318c0.745,0,1.438-0.195,2.078-0.582v-1.895c-0.63-0.021-1.042-0.031-1.238-0.031
	c-0.783,0-1.359,0.123-1.726,0.369C86.504,44.622,86.322,44.938,86.322,45.327z"/>
<path fill="#1D1D1B" d="M92.943,45.423c0-0.717,0.312-1.301,0.936-1.748c0.623-0.447,1.524-0.672,2.703-0.672
	c0.468,0,0.87,0.008,1.206,0.018v-0.869c0-1.087-0.61-1.629-1.831-1.629c-0.763,0-1.548,0.172-2.351,0.518l-0.267-1.052
	c0.515-0.225,0.98-0.386,1.4-0.482c0.422-0.098,0.884-0.146,1.394-0.146c0.914,0,1.619,0.224,2.117,0.673
	c0.496,0.448,0.745,1.083,0.745,1.905v5.541H97.82v-0.551c-0.4,0.238-0.774,0.404-1.123,0.502s-0.767,0.145-1.251,0.145
	c-0.771,0-1.383-0.195-1.83-0.584C93.167,46.599,92.943,46.077,92.943,45.423z M94.272,45.327c0,0.365,0.123,0.652,0.368,0.867
	c0.243,0.211,0.602,0.318,1.069,0.318c0.745,0,1.438-0.195,2.078-0.582v-1.895c-0.63-0.021-1.043-0.031-1.238-0.031
	c-0.783,0-1.359,0.123-1.727,0.369C94.456,44.622,94.272,44.938,94.272,45.327z"/>
<path fill="#1D1D1B" d="M101.485,47.479v-7.966l1.192-0.105v0.548c0.37-0.213,0.723-0.368,1.062-0.459
	c0.338-0.091,0.719-0.137,1.141-0.137c0.903,0,1.596,0.236,2.076,0.708c0.479,0.474,0.718,1.145,0.718,2.015v5.396h-1.24v-5.254
	c0-0.523-0.157-0.938-0.469-1.244c-0.312-0.307-0.752-0.459-1.316-0.459c-0.647,0-1.288,0.135-1.922,0.407v6.55H101.485z"/>
<path fill="#1D1D1B" d="M112.528,47.513v-1.129c0.217,0.043,0.48,0.064,0.783,0.064c0.442,0,0.79-0.139,1.037-0.414
	c0.249-0.275,0.372-0.68,0.372-1.215v-8.094h1.29v8.112c0,0.871-0.244,1.545-0.729,2.021c-0.487,0.479-1.128,0.717-1.921,0.717
	C112.996,47.575,112.72,47.554,112.528,47.513z"/>
<path fill="#1D1D1B" d="M118.387,43.476c0-0.666,0.087-1.266,0.264-1.801c0.176-0.533,0.418-0.972,0.724-1.312
	c0.306-0.342,0.66-0.604,1.061-0.781c0.398-0.18,0.831-0.269,1.296-0.269c0.973,0,1.724,0.275,2.256,0.829
	c0.532,0.552,0.797,1.349,0.797,2.391c0,0.432-0.011,0.758-0.031,0.977h-5.125c0.006,0.982,0.242,1.717,0.706,2.205
	c0.467,0.488,1.093,0.734,1.879,0.734c0.87,0,1.686-0.172,2.443-0.514v1.121c-0.438,0.188-0.853,0.32-1.242,0.398
	c-0.39,0.082-0.841,0.121-1.354,0.121c-1.147,0-2.047-0.338-2.696-1.018C118.713,45.882,118.387,44.854,118.387,43.476z
	 M119.677,42.509h3.779c0-0.711-0.155-1.25-0.463-1.614c-0.308-0.367-0.749-0.551-1.327-0.551c-0.509,0-0.946,0.194-1.316,0.582
	C119.981,41.314,119.757,41.841,119.677,42.509z"/>
<path fill="#1D1D1B" d="M126.184,47.319v-1.16c0.688,0.193,1.459,0.289,2.313,0.289c0.559,0,0.993-0.109,1.302-0.322
	c0.309-0.215,0.463-0.502,0.463-0.861c0-0.311-0.104-0.562-0.311-0.76c-0.209-0.195-0.554-0.359-1.034-0.488l-0.937-0.273
	c-1.137-0.33-1.706-1.012-1.706-2.049c0-0.669,0.271-1.224,0.81-1.669c0.539-0.442,1.246-0.665,2.115-0.665
	c0.721,0,1.361,0.062,1.928,0.185L131,40.648c-0.55-0.106-1.169-0.158-1.863-0.158c-0.517,0-0.92,0.102-1.214,0.304
	c-0.291,0.205-0.438,0.465-0.438,0.783c0,0.291,0.087,0.523,0.268,0.697c0.178,0.178,0.462,0.316,0.855,0.422l0.938,0.246
	c1.286,0.336,1.929,1.021,1.926,2.059c0,0.766-0.279,1.385-0.839,1.861c-0.561,0.475-1.292,0.713-2.199,0.713
	C127.558,47.575,126.809,47.491,126.184,47.319z"/>
<path fill="#1D1D1B" d="M133.442,50.612V39.514l1.192-0.105v0.516c0.684-0.375,1.407-0.563,2.171-0.563
	c1.013,0,1.81,0.331,2.392,0.994c0.583,0.662,0.875,1.646,0.875,2.949c0,1.33-0.386,2.371-1.158,3.131s-1.794,1.141-3.062,1.141
	c-0.411,0-0.8-0.037-1.167-0.111v3.148H133.442z M134.684,46.353c0.42,0.084,0.868,0.127,1.346,0.127
	c0.82,0,1.485-0.266,1.992-0.791c0.508-0.529,0.762-1.291,0.762-2.289c0-1.918-0.786-2.877-2.355-2.877
	c-0.588,0-1.168,0.135-1.744,0.407V46.353z"/>
<path fill="#1D1D1B" d="M141.714,43.476c0-0.666,0.087-1.266,0.264-1.801c0.176-0.533,0.418-0.972,0.724-1.312
	c0.307-0.342,0.66-0.604,1.061-0.781c0.398-0.18,0.831-0.269,1.296-0.269c0.973,0,1.724,0.275,2.256,0.829
	c0.532,0.552,0.797,1.349,0.797,2.391c0,0.432-0.011,0.758-0.032,0.977h-5.124c0.005,0.982,0.242,1.717,0.706,2.205
	c0.467,0.488,1.093,0.734,1.879,0.734c0.871,0,1.686-0.172,2.443-0.514v1.121c-0.438,0.188-0.853,0.32-1.242,0.398
	c-0.39,0.082-0.842,0.121-1.354,0.121c-1.148,0-2.047-0.338-2.696-1.018C142.04,45.882,141.714,44.854,141.714,43.476z
	 M143.004,42.509h3.779c0-0.711-0.154-1.25-0.463-1.614c-0.308-0.367-0.749-0.551-1.327-0.551c-0.509,0-0.946,0.194-1.316,0.582
	C143.309,41.314,143.084,41.841,143.004,42.509z"/>
<path fill="#1D1D1B" d="M150.147,47.479v-7.968l1.224-0.104v0.936c0.566-0.654,1.136-0.983,1.706-0.983
	c0.278,0,0.59,0.041,0.938,0.119l-0.146,1.226c-0.32-0.085-0.627-0.128-0.92-0.128c-0.262,0-0.513,0.064-0.753,0.192
	s-0.511,0.342-0.808,0.641v6.069H150.147z"/>
<path fill="#1D1D1B" d="M159.232,47.479V36.725h1.29v4.676h0.92l3.836-4.676h1.53l-4.195,5.073l4.306,5.682h-1.672l-3.755-4.916
	h-0.97v4.916H159.232z"/>
<path fill="#1D1D1B" d="M168.033,45.423c0-0.717,0.312-1.301,0.936-1.748c0.623-0.447,1.525-0.672,2.703-0.672
	c0.468,0,0.87,0.008,1.206,0.018v-0.869c0-1.087-0.609-1.629-1.83-1.629c-0.764,0-1.549,0.172-2.352,0.518l-0.267-1.052
	c0.515-0.225,0.98-0.386,1.4-0.482c0.422-0.098,0.885-0.146,1.394-0.146c0.914,0,1.619,0.224,2.117,0.673
	c0.496,0.448,0.746,1.083,0.746,1.905v5.541h-1.177v-0.551c-0.4,0.238-0.774,0.404-1.122,0.502c-0.35,0.098-0.768,0.145-1.252,0.145
	c-0.771,0-1.382-0.195-1.83-0.584C168.256,46.599,168.033,46.077,168.033,45.423z M169.362,45.327c0,0.365,0.123,0.652,0.368,0.867
	c0.244,0.211,0.602,0.318,1.069,0.318c0.746,0,1.438-0.195,2.078-0.582v-1.895c-0.63-0.021-1.042-0.031-1.238-0.031
	c-0.783,0-1.359,0.123-1.726,0.369C169.545,44.622,169.362,44.938,169.362,45.327z"/>
<path fill="#1D1D1B" d="M176.577,47.479v-7.968l1.225-0.104v0.936c0.566-0.654,1.135-0.983,1.706-0.983
	c0.278,0,0.589,0.041,0.938,0.119l-0.146,1.226c-0.32-0.085-0.626-0.128-0.92-0.128c-0.262,0-0.512,0.064-0.752,0.192
	s-0.512,0.342-0.809,0.641v6.069H176.577z"/>
<path fill="#1D1D1B" d="M181.362,47.319v-1.16c0.688,0.193,1.459,0.289,2.312,0.289c0.56,0,0.993-0.109,1.303-0.322
	c0.309-0.215,0.463-0.502,0.463-0.861c0-0.311-0.105-0.562-0.312-0.76c-0.208-0.195-0.554-0.359-1.034-0.488l-0.936-0.273
	c-1.137-0.33-1.706-1.012-1.706-2.049c0-0.669,0.271-1.224,0.81-1.669c0.539-0.442,1.245-0.665,2.115-0.665
	c0.721,0,1.361,0.062,1.928,0.185l-0.129,1.104c-0.55-0.106-1.169-0.158-1.862-0.158c-0.517,0-0.92,0.102-1.214,0.304
	c-0.292,0.205-0.438,0.465-0.438,0.783c0,0.291,0.087,0.523,0.267,0.697c0.178,0.178,0.463,0.316,0.856,0.422l0.938,0.246
	c1.286,0.336,1.929,1.021,1.925,2.059c0,0.766-0.279,1.385-0.838,1.861c-0.561,0.475-1.292,0.713-2.199,0.713
	C182.735,47.575,181.987,47.491,181.362,47.319z"/>
<path fill="#FFFFFF" d="M35.313,41.516c-1.377-2.345-3.244-4.201-5.597-5.57c-2.353-1.37-4.908-2.055-7.659-2.055
	c-2.798,0-5.394,0.685-7.784,2.055c-2.39,1.37-4.282,3.226-5.674,5.57c-1.392,2.346-2.088,4.887-2.088,7.626
	c0,2.088,0.413,4.087,1.241,5.995c0.825,1.91,1.929,3.561,3.317,4.944c1.384,1.381,3.034,2.485,4.956,3.307s3.933,1.233,6.031,1.233
	c2.062,0,4.036-0.412,5.928-1.233c1.889-0.821,3.52-1.926,4.886-3.307c1.37-1.384,2.46-3.034,3.277-4.944
	c0.817-1.908,1.226-3.907,1.226-5.995C37.375,46.402,36.687,43.861,35.313,41.516z M31.237,39.922
	c1.164,1.171,2.084,2.562,2.769,4.18c0.685,1.619,1.027,3.299,1.027,5.04c0,0.037-0.007,0.073-0.007,0.114H28.87L24.939,36.42
	c0.729,0.17,1.451,0.383,2.152,0.688C28.693,37.812,30.077,38.751,31.237,39.922z M21.774,36.862l3.647,12.394h-7.738l3.712-12.394
	H21.774z M10.621,42.621c1.178-2.007,2.784-3.602,4.812-4.787c0.99-0.578,2.025-1.009,3.1-1.307l-4.017,12.729H8.861
	c0-0.041-0.008-0.077-0.008-0.114C8.854,46.8,9.443,44.627,10.621,42.621z M10.621,55.766c-0.674-1.16-1.132-2.386-1.421-3.664
	h4.418l-1.693,5.369C11.472,56.918,10.989,56.399,10.621,55.766z M22.058,62.39c-2.386,0-4.595-0.597-6.624-1.789
	c-0.33-0.195-0.578-0.468-0.886-0.685l2.292-7.814h9.418l2.461,8.37c-0.061,0.036-0.103,0.092-0.164,0.129
	C26.564,61.793,24.396,62.39,22.058,62.39z M31.563,58.056l-1.823-5.954h4.949c-0.286,1.271-0.736,2.493-1.397,3.653
	C32.802,56.609,32.198,57.35,31.563,58.056z"/>
</svg>
